# xmcd
#
# Track frame offsets: 
#        175
#        24810
#        46159
#        63078
#        90088
#        125891
#        142127
#        162835
#        179571
#        204184
#        235375
#        255558
#        284775
#        309773
#
# Disc length: 4532 seconds
#
# Revision: 0
# Processed by: cddbd v1.5.2PL0 Copyright (c) Steve Scherf et al.
# Submitted via: ExactAudioCopy v0.99pb3
#
DISCID=bb11b20e
DTITLE=YOUSEF - Underwater Solo - CD2
DYEAR=2007
DGENRE=Techno
TTITLE0=Pier Bucci - Hay Consuelo (Samim remix)
TTITLE1=Paul Ritch - Nordbanhoff
TTITLE2=Joris Voorn - Mpx 309
TTITLE3=Danny and Nick Chatelain - Givin love
TTITLE4=Nic Fancuilli - Lucky Heather (dubfires lucky 13 remix)
TTITLE5=Paul Ritch - June
TTITLE6=Digitalism - Jupiter Room ( Martian Assault mix)
TTITLE7=Dada ft.Sandy Rivera - lollipop (nic fancuilli dub)
TTITLE8=Yousef - The approach
TTITLE9=Mathew Dekay - Timeless (digifruitella dub)
TTITLE10=Dj Pierre ft. Slfronia King - Destroy this Track (James Talk 
TTITLE10=303 mix)
TTITLE11=Yousef - Spooky
TTITLE12=Yousef - My own best myself (yousefs fury editz)
TTITLE13=Joris Voorn - Blank
EXTD=
EXTT0=
EXTT1=
EXTT2=
EXTT3=
EXTT4=
EXTT5=
EXTT6=
EXTT7=
EXTT8=
EXTT9=
EXTT10=
EXTT11=
EXTT12=
EXTT13=
PLAYORDER=
